<svg viewBox="0 0 376 278" fill="none" xmlns="http://www.w3.org/2000/svg">
  <path d="M170.008 17.4h-48.96l-15.84 128.16c-1.152 9.216-4.032 15.84-8.064 19.296-4.032 3.456-8.928 5.184-14.688 5.184-15.84 0-22.176-11.808-19.296-35.712l-46.656 19.296c-1.152 9.216-.864 17.568 1.44 25.632 2.016 8.064 5.472 14.976 10.656 20.736s11.52 10.368 19.584 13.824C55.96 217.272 65.176 219 75.832 219c8.64 0 17.568-1.152 26.208-4.032 8.64-2.592 16.704-6.912 23.904-12.96 7.2-5.76 13.248-13.248 18.432-22.464 4.896-9.216 8.064-20.16 9.792-33.408L170.008 17.4zM300.49 66.36h68.832l6.048-48.96H188.458l-6.048 48.96h69.12L232.81 219h48.96l18.72-152.64z" fill="currentColor"/>
  <path fill-rule="evenodd" clip-rule="evenodd" d="M187 277.47c103.277 0 187-12.641 187-28.235S290.277 221 187 221 0 233.641 0 249.235s83.723 28.235 187 28.235zm-.463-12.034c8.947 0 16.201-7.254 16.201-16.201 0-8.947-7.254-16.2-16.201-16.2-8.947 0-16.2 7.253-16.2 16.2s7.253 16.201 16.2 16.201z" fill="currentColor"/>
</svg>