<svg viewBox="0 0 1921 1081" fill="none" xmlns="http://www.w3.org/2000/svg">
<path d="M766.46 0.400024H491.727V686.971C491.727 736.343 480.414 771.829 461.021 790.343C440.012 808.857 414.155 818.114 381.834 818.114C291.333 818.114 247.699 754.857 247.699 626.8L0.439453 730.171C0.439453 779.543 8.51984 824.286 26.2967 867.486C42.4574 910.686 68.3147 947.714 100.636 978.572C132.958 1009.43 171.744 1034.11 218.61 1052.63C265.476 1071.14 318.807 1080.4 378.601 1080.4C427.084 1080.4 475.566 1074.23 522.432 1058.8C569.298 1044.91 611.316 1021.77 646.87 989.371C682.424 958.514 711.513 918.4 734.138 869.029C755.147 819.657 766.46 761.029 766.46 690.057V0.400024Z" fill="black"/>
<path d="M1534.2 262.686H1920.44V0.400024H871.606V262.686H1259.46V1080.4H1534.2V262.686Z" fill="black"/>
</svg>
