<svg width="670" height="439" viewBox="0 0 670 439" fill="none" xmlns="http://www.w3.org/2000/svg">
<path d="M186.222 9.06399L170.382 4.83999L153.006 69.736L168.846 73.96L186.222 9.06399Z" fill="currentColor"/>
<path d="M211.909 75.208L215.749 61C213.637 60.808 212.197 60.616 211.333 60.424C210.373 60.328 209.701 60.232 209.221 60.04C207.877 59.656 206.821 59.176 206.245 58.504C205.573 57.832 205.477 56.872 205.861 55.528L210.181 39.4L221.413 42.376L224.677 30.184L213.445 27.112L216.805 14.728L201.925 10.792L198.565 23.176L190.597 21.064L187.333 33.256L195.301 35.464L190.213 54.664C188.677 60.232 188.869 64.456 190.789 67.528C192.613 70.6 195.781 72.616 200.197 73.768C201.733 74.248 203.461 74.632 205.573 74.824C207.589 75.112 209.701 75.208 211.909 75.208Z" fill="currentColor"/>
<path d="M231.12 35.08C230.352 37.576 230.256 39.88 230.64 41.8C231.024 43.816 231.792 45.544 232.848 47.08C233.904 48.616 235.152 49.96 236.688 51.112C238.224 52.264 239.76 53.128 241.296 53.896C243.312 54.952 244.944 55.816 246.192 56.392C247.44 57.064 248.4 57.64 249.072 58.024C249.744 58.408 250.224 58.792 250.416 59.08C250.608 59.368 250.608 59.656 250.608 59.944C250.32 60.712 249.744 61.096 248.784 61.096C247.824 61.096 246.864 60.904 246 60.616C242.544 59.656 239.664 58.408 237.552 56.68C235.344 54.952 233.616 53.224 232.368 51.496L221.616 61.96C223.248 64.456 225.744 66.568 229.008 68.488C232.272 70.408 236.112 72.04 240.624 73.192C247.44 75.112 253.008 75.304 257.424 73.768C261.84 72.328 264.72 68.872 266.256 63.4C266.832 61.096 267.024 59.08 266.832 57.256C266.64 55.432 266.064 53.8 265.2 52.264C264.24 50.728 263.088 49.384 261.552 48.136C260.016 46.984 258.384 45.832 256.464 44.872C254.16 43.72 252.432 42.856 251.088 42.184C249.744 41.512 248.784 40.936 248.112 40.456C247.44 40.072 247.056 39.688 246.864 39.496C246.672 39.304 246.672 39.016 246.768 38.632C246.864 38.152 247.248 37.864 247.92 37.672C248.592 37.48 249.648 37.672 251.184 38.056C252.144 38.344 253.2 38.728 254.352 39.208C255.504 39.688 256.56 40.264 257.712 40.84C258.768 41.416 259.824 42.088 260.784 42.76C261.744 43.528 262.512 44.2 263.088 44.968L273.36 35.08C271.44 33.064 269.136 31.144 266.352 29.416C263.472 27.688 260.112 26.344 256.08 25.192C249.552 23.464 244.08 23.464 239.664 25C235.248 26.632 232.464 29.992 231.12 35.08Z" fill="currentColor"/>
<path d="M299.092 42.184C298.132 45.928 297.844 49.48 298.324 52.84C298.804 56.2 299.86 59.272 301.588 61.96C303.316 64.648 305.524 67.048 308.308 68.968C311.092 70.888 314.26 72.328 317.908 73.288C321.556 74.248 325.012 74.632 328.468 74.248C331.828 73.96 334.9 73.096 337.78 71.56C340.564 70.024 342.964 68.008 345.076 65.32C347.188 62.728 348.724 59.56 349.78 55.816C350.74 52.168 350.932 48.616 350.452 45.256C349.972 41.896 348.916 38.824 347.188 36.136C345.46 33.448 343.252 31.048 340.468 29.128C337.684 27.208 334.516 25.672 330.964 24.712C327.316 23.752 323.764 23.464 320.404 23.752C316.948 24.136 313.876 25 311.092 26.536C308.212 28.072 305.812 30.088 303.7 32.68C301.588 35.368 300.052 38.536 299.092 42.184ZM334.516 51.688C334.132 53.224 333.46 54.568 332.596 55.624C331.732 56.68 330.772 57.448 329.62 58.024C328.468 58.6 327.22 58.984 325.876 59.08C324.532 59.272 323.188 59.08 321.844 58.696C320.5 58.312 319.252 57.832 318.196 57.064C317.044 56.296 316.18 55.432 315.508 54.28C314.74 53.224 314.26 51.976 314.068 50.632C313.876 49.288 313.972 47.848 314.356 46.312C314.74 44.776 315.316 43.528 316.18 42.472C317.044 41.416 318.1 40.552 319.252 39.976C320.404 39.4 321.652 39.112 322.996 38.92C324.34 38.824 325.684 38.92 327.028 39.304C328.372 39.688 329.524 40.264 330.676 41.032C331.732 41.8 332.596 42.664 333.364 43.72C334.036 44.872 334.516 46.024 334.708 47.368C334.9 48.712 334.9 50.152 334.516 51.688Z" fill="currentColor"/>
<path d="M372.792 53.608L379.32 73.192L398.232 78.28L385.368 46.408L410.712 32.008L391.416 26.824L373.176 38.152L382.2 4.45599L367.32 0.519989L349.944 65.416L364.824 69.352L368.376 56.104L372.792 53.608Z" fill="currentColor"/>
<path d="M437.461 54.568L437.269 55.432C436.597 57.832 435.253 59.56 433.237 60.616C431.221 61.672 428.917 61.864 426.421 61.096C424.693 60.712 423.445 60.04 422.677 59.08C421.909 58.12 421.717 57.064 422.101 55.816C422.389 54.76 423.061 53.992 424.021 53.512C424.981 53.128 426.325 52.936 427.861 53.128L437.461 54.568ZM413.845 28.936L422.005 39.88C422.773 39.112 423.733 38.632 424.789 38.248C425.845 37.864 426.901 37.672 428.053 37.576C429.205 37.576 430.261 37.576 431.413 37.768C432.565 37.96 433.621 38.152 434.581 38.344C436.885 39.016 438.517 39.784 439.477 40.552C440.437 41.416 440.725 42.28 440.533 43.048L440.437 43.432C440.245 44.296 439.381 44.584 438.037 44.392L425.173 42.088C422.965 41.704 420.853 41.704 418.837 41.992C416.821 42.28 414.997 42.856 413.365 43.816C411.733 44.776 410.293 45.928 409.141 47.464C407.989 49 407.125 50.728 406.549 52.84C405.973 55.144 405.781 57.256 406.165 59.176C406.453 61.192 407.125 63.016 408.181 64.648C409.237 66.28 410.677 67.72 412.405 68.872C414.133 70.024 416.053 70.888 418.261 71.464C420.181 72.04 421.909 72.232 423.445 72.232C424.981 72.232 426.421 71.944 427.765 71.56C429.109 71.176 430.261 70.696 431.221 70.024C432.181 69.448 433.045 68.776 433.813 68.104L432.181 74.248L447.061 78.184L454.453 50.536C456.277 43.528 455.797 37.96 453.013 33.928C450.229 29.896 445.333 26.92 438.421 25C433.621 23.752 429.013 23.368 424.693 23.752C420.277 24.232 416.725 25.96 413.845 28.936Z" fill="currentColor"/>
<path d="M455.281 86.152L470.833 90.376L517.009 33.16L501.361 28.936L485.713 48.424L481.585 23.656L464.593 19.144L473.329 63.688L455.281 86.152Z" fill="currentColor"/>
<path d="M84.456 195.208L88.296 181C86.184 180.808 84.744 180.616 83.88 180.424C82.92 180.328 82.248 180.232 81.768 180.04C80.424 179.656 79.368 179.176 78.792 178.504C78.12 177.832 78.024 176.872 78.408 175.528L82.728 159.4L93.96 162.376L97.224 150.184L85.992 147.112L89.352 134.728L74.472 130.792L71.112 143.176L63.144 141.064L59.88 153.256L67.848 155.464L62.76 174.664C61.224 180.232 61.416 184.456 63.336 187.528C65.16 190.6 68.328 192.616 72.744 193.768C74.28 194.248 76.008 194.632 78.12 194.824C80.136 195.112 82.248 195.208 84.456 195.208Z" fill="currentColor"/>
<path d="M98.4202 162.184C97.4602 165.928 97.1722 169.48 97.6522 172.84C98.1322 176.2 99.1882 179.272 100.916 181.96C102.644 184.648 104.852 187.048 107.636 188.968C110.42 190.888 113.588 192.328 117.236 193.288C120.884 194.248 124.34 194.632 127.796 194.248C131.156 193.96 134.228 193.096 137.108 191.56C139.892 190.024 142.292 188.008 144.404 185.32C146.516 182.728 148.052 179.56 149.108 175.816C150.068 172.168 150.26 168.616 149.78 165.256C149.3 161.896 148.244 158.824 146.516 156.136C144.788 153.448 142.58 151.048 139.796 149.128C137.012 147.208 133.844 145.672 130.292 144.712C126.644 143.752 123.092 143.464 119.732 143.752C116.276 144.136 113.204 145 110.42 146.536C107.54 148.072 105.14 150.088 103.028 152.68C100.916 155.368 99.3803 158.536 98.4202 162.184ZM133.844 171.688C133.46 173.224 132.788 174.568 131.924 175.624C131.06 176.68 130.1 177.448 128.948 178.024C127.796 178.6 126.548 178.984 125.204 179.08C123.86 179.272 122.516 179.08 121.172 178.696C119.828 178.312 118.58 177.832 117.524 177.064C116.372 176.296 115.508 175.432 114.836 174.28C114.068 173.224 113.588 171.976 113.396 170.632C113.204 169.288 113.3 167.848 113.684 166.312C114.068 164.776 114.644 163.528 115.508 162.472C116.372 161.416 117.428 160.552 118.58 159.976C119.732 159.4 120.98 159.112 122.324 158.92C123.668 158.824 125.012 158.92 126.356 159.304C127.7 159.688 128.852 160.264 130.004 161.032C131.06 161.8 131.924 162.664 132.692 163.72C133.364 164.872 133.844 166.024 134.036 167.368C134.228 168.712 134.228 170.152 133.844 171.688Z" fill="currentColor"/>
<path d="M203.538 150.568L205.362 143.656L190.866 139.816L178.482 186.184L193.362 190.12L199.314 167.56C200.274 164.104 201.714 161.704 203.634 160.264C205.554 158.92 207.762 158.536 210.258 159.208C212.466 159.784 214.002 160.936 214.962 162.568C215.826 164.2 215.826 166.504 215.058 169.576L208.434 194.152L223.41 198.184L231.378 168.52C232.914 162.76 232.722 158.056 230.898 154.216C229.074 150.472 225.618 147.88 220.53 146.536C216.882 145.576 213.618 145.672 210.738 146.632C207.858 147.592 205.458 148.936 203.538 150.568Z" fill="currentColor"/>
<path d="M239.139 162.184C238.179 165.928 237.891 169.48 238.371 172.84C238.851 176.2 239.907 179.272 241.635 181.96C243.363 184.648 245.571 187.048 248.355 188.968C251.139 190.888 254.307 192.328 257.955 193.288C261.603 194.248 265.059 194.632 268.515 194.248C271.875 193.96 274.947 193.096 277.827 191.56C280.611 190.024 283.011 188.008 285.123 185.32C287.235 182.728 288.771 179.56 289.827 175.816C290.787 172.168 290.979 168.616 290.499 165.256C290.019 161.896 288.963 158.824 287.235 156.136C285.507 153.448 283.299 151.048 280.515 149.128C277.731 147.208 274.563 145.672 271.011 144.712C267.363 143.752 263.811 143.464 260.451 143.752C256.995 144.136 253.923 145 251.139 146.536C248.259 148.072 245.859 150.088 243.747 152.68C241.635 155.368 240.099 158.536 239.139 162.184ZM274.563 171.688C274.179 173.224 273.507 174.568 272.643 175.624C271.779 176.68 270.819 177.448 269.667 178.024C268.515 178.6 267.267 178.984 265.923 179.08C264.579 179.272 263.235 179.08 261.891 178.696C260.547 178.312 259.299 177.832 258.243 177.064C257.091 176.296 256.227 175.432 255.555 174.28C254.787 173.224 254.307 171.976 254.115 170.632C253.923 169.288 254.019 167.848 254.403 166.312C254.787 164.776 255.363 163.528 256.227 162.472C257.091 161.416 258.147 160.552 259.299 159.976C260.451 159.4 261.699 159.112 263.043 158.92C264.387 158.824 265.731 158.92 267.075 159.304C268.419 159.688 269.571 160.264 270.723 161.032C271.779 161.8 272.643 162.664 273.411 163.72C274.083 164.872 274.563 166.024 274.755 167.368C274.947 168.712 274.947 170.152 274.563 171.688Z" fill="currentColor"/>
<path d="M320.518 195.208L324.358 181C322.246 180.808 320.807 180.616 319.943 180.424C318.983 180.328 318.311 180.232 317.831 180.04C316.487 179.656 315.43 179.176 314.854 178.504C314.182 177.832 314.086 176.872 314.47 175.528L318.79 159.4L330.022 162.376L333.286 150.184L322.055 147.112L325.414 134.728L310.535 130.792L307.174 143.176L299.207 141.064L295.943 153.256L303.91 155.464L298.823 174.664C297.287 180.232 297.478 184.456 299.398 187.528C301.222 190.6 304.39 192.616 308.806 193.768C310.342 194.248 312.07 194.632 314.182 194.824C316.198 195.112 318.31 195.208 320.518 195.208Z" fill="currentColor"/>
<path d="M379.307 173.608L385.835 193.192L404.747 198.28L391.883 166.408L417.227 152.008L397.931 146.824L379.691 158.152L388.715 124.456L373.835 120.52L356.459 185.416L371.339 189.352L374.891 176.104L379.307 173.608Z" fill="currentColor"/>
<path d="M439.132 150.568L440.956 143.656L426.46 139.816L414.076 186.184L428.956 190.12L434.908 167.56C435.868 164.104 437.308 161.704 439.228 160.264C441.148 158.92 443.356 158.536 445.852 159.208C448.06 159.784 449.596 160.936 450.556 162.568C451.42 164.2 451.42 166.504 450.652 169.576L444.028 194.152L459.004 198.184L466.972 168.52C468.508 162.76 468.316 158.056 466.492 154.216C464.668 150.472 461.212 147.88 456.124 146.536C452.476 145.576 449.212 145.672 446.332 146.632C443.452 147.592 441.052 148.936 439.132 150.568Z" fill="currentColor"/>
<path d="M474.733 162.184C473.773 165.928 473.485 169.48 473.965 172.84C474.445 176.2 475.501 179.272 477.229 181.96C478.957 184.648 481.165 187.048 483.949 188.968C486.733 190.888 489.901 192.328 493.549 193.288C497.197 194.248 500.653 194.632 504.109 194.248C507.469 193.96 510.541 193.096 513.421 191.56C516.205 190.024 518.605 188.008 520.717 185.32C522.829 182.728 524.365 179.56 525.421 175.816C526.381 172.168 526.573 168.616 526.093 165.256C525.613 161.896 524.557 158.824 522.829 156.136C521.101 153.448 518.893 151.048 516.109 149.128C513.325 147.208 510.157 145.672 506.605 144.712C502.957 143.752 499.405 143.464 496.045 143.752C492.589 144.136 489.517 145 486.733 146.536C483.853 148.072 481.453 150.088 479.341 152.68C477.229 155.368 475.693 158.536 474.733 162.184ZM510.157 171.688C509.773 173.224 509.101 174.568 508.237 175.624C507.373 176.68 506.413 177.448 505.261 178.024C504.109 178.6 502.861 178.984 501.517 179.08C500.173 179.272 498.829 179.08 497.485 178.696C496.141 178.312 494.893 177.832 493.837 177.064C492.685 176.296 491.821 175.432 491.149 174.28C490.381 173.224 489.901 171.976 489.709 170.632C489.517 169.288 489.613 167.848 489.997 166.312C490.381 164.776 490.957 163.528 491.821 162.472C492.685 161.416 493.741 160.552 494.893 159.976C496.045 159.4 497.293 159.112 498.637 158.92C499.981 158.824 501.325 158.92 502.669 159.304C504.013 159.688 505.165 160.264 506.317 161.032C507.373 161.8 508.237 162.664 509.005 163.72C509.677 164.872 510.157 166.024 510.349 167.368C510.541 168.712 510.541 170.152 510.157 171.688Z" fill="currentColor"/>
<path d="M538.051 186.472L549.283 189.448L565.891 168.04L569.539 194.92L580.675 197.896L611.779 156.52L595.939 152.296L580.963 173.608L577.987 147.496L565.603 144.136L549.955 165.352L547.747 139.336L531.811 135.112L538.051 186.472Z" fill="currentColor"/>
<path d="M7.00462 306.472L18.2366 309.448L34.8446 288.04L38.4926 314.92L49.6286 317.896L80.7326 276.52L64.8926 272.296L49.9166 293.608L46.9406 267.496L34.5566 264.136L18.9086 285.352L16.7006 259.336L0.764618 255.112L7.00462 306.472Z" fill="currentColor"/>
<path d="M104.041 244.936L89.2571 240.904L71.8811 305.8L86.6651 309.832L92.7131 287.272C93.6731 283.816 95.1131 281.416 97.0331 279.976C98.9531 278.632 101.161 278.248 103.657 278.824C105.865 279.496 107.401 280.648 108.265 282.28C109.129 283.912 109.129 286.216 108.361 289.288L101.833 313.864L116.809 317.896L124.777 288.232C126.313 282.472 126.121 277.768 124.297 273.928C122.473 270.184 119.017 267.592 113.833 266.248C110.185 265.288 107.017 265.288 104.329 266.248C101.641 267.208 99.2411 268.552 97.2251 270.376L104.041 244.936Z" fill="currentColor"/>
<path d="M162.586 294.568L162.394 295.432C161.722 297.832 160.378 299.56 158.362 300.616C156.346 301.672 154.042 301.864 151.546 301.096C149.818 300.712 148.57 300.04 147.802 299.08C147.034 298.12 146.842 297.064 147.226 295.816C147.514 294.76 148.186 293.992 149.146 293.512C150.106 293.128 151.45 292.936 152.986 293.128L162.586 294.568ZM138.97 268.936L147.13 279.88C147.898 279.112 148.858 278.632 149.914 278.248C150.97 277.864 152.026 277.672 153.178 277.576C154.33 277.576 155.386 277.576 156.538 277.768C157.69 277.96 158.746 278.152 159.706 278.344C162.01 279.016 163.642 279.784 164.602 280.552C165.562 281.416 165.85 282.28 165.658 283.048L165.562 283.432C165.37 284.296 164.506 284.584 163.162 284.392L150.298 282.088C148.09 281.704 145.978 281.704 143.962 281.992C141.946 282.28 140.122 282.856 138.49 283.816C136.858 284.776 135.418 285.928 134.266 287.464C133.114 289 132.25 290.728 131.674 292.84C131.098 295.144 130.906 297.256 131.29 299.176C131.578 301.192 132.25 303.016 133.306 304.648C134.362 306.28 135.802 307.72 137.53 308.872C139.258 310.024 141.178 310.888 143.386 311.464C145.306 312.04 147.034 312.232 148.57 312.232C150.106 312.232 151.546 311.944 152.89 311.56C154.234 311.176 155.386 310.696 156.346 310.024C157.306 309.448 158.17 308.776 158.938 308.104L157.306 314.248L172.186 318.184L179.578 290.536C181.402 283.528 180.922 277.96 178.138 273.928C175.354 269.896 170.458 266.92 163.546 265C158.746 263.752 154.138 263.368 149.818 263.752C145.402 264.232 141.85 265.96 138.97 268.936Z" fill="currentColor"/>
<path d="M211.909 315.208L215.749 301C213.637 300.808 212.197 300.616 211.333 300.424C210.373 300.328 209.701 300.232 209.221 300.04C207.877 299.656 206.821 299.176 206.245 298.504C205.573 297.832 205.477 296.872 205.861 295.528L210.181 279.4L221.413 282.376L224.677 270.184L213.445 267.112L216.805 254.728L201.925 250.792L198.565 263.176L190.597 261.064L187.333 273.256L195.301 275.464L190.213 294.664C188.677 300.232 188.869 304.456 190.789 307.528C192.613 310.6 195.781 312.616 200.197 313.768C201.733 314.248 203.461 314.632 205.573 314.824C207.589 315.112 209.701 315.208 211.909 315.208Z" fill="currentColor"/>
<path d="M250.25 326.152L265.802 330.376L311.978 273.16L296.33 268.936L280.682 288.424L276.554 263.656L259.562 259.144L268.298 303.688L250.25 326.152Z" fill="currentColor"/>
<path d="M303.592 282.184C302.632 285.928 302.344 289.48 302.824 292.84C303.304 296.2 304.36 299.272 306.088 301.96C307.816 304.648 310.024 307.048 312.808 308.968C315.592 310.888 318.76 312.328 322.408 313.288C326.056 314.248 329.512 314.632 332.968 314.248C336.328 313.96 339.4 313.096 342.28 311.56C345.064 310.024 347.464 308.008 349.576 305.32C351.688 302.728 353.224 299.56 354.28 295.816C355.24 292.168 355.432 288.616 354.952 285.256C354.472 281.896 353.416 278.824 351.688 276.136C349.96 273.448 347.752 271.048 344.968 269.128C342.184 267.208 339.016 265.672 335.464 264.712C331.816 263.752 328.264 263.464 324.904 263.752C321.448 264.136 318.376 265 315.592 266.536C312.712 268.072 310.312 270.088 308.2 272.68C306.088 275.368 304.552 278.536 303.592 282.184ZM339.016 291.688C338.632 293.224 337.96 294.568 337.096 295.624C336.232 296.68 335.272 297.448 334.12 298.024C332.968 298.6 331.72 298.984 330.376 299.08C329.032 299.272 327.688 299.08 326.344 298.696C325 298.312 323.752 297.832 322.696 297.064C321.544 296.296 320.68 295.432 320.008 294.28C319.24 293.224 318.76 291.976 318.568 290.632C318.376 289.288 318.472 287.848 318.856 286.312C319.24 284.776 319.816 283.528 320.68 282.472C321.544 281.416 322.6 280.552 323.752 279.976C324.904 279.4 326.152 279.112 327.496 278.92C328.84 278.824 330.184 278.92 331.528 279.304C332.872 279.688 334.024 280.264 335.176 281.032C336.232 281.8 337.096 282.664 337.864 283.72C338.536 284.872 339.016 286.024 339.208 287.368C339.4 288.712 339.4 290.152 339.016 291.688Z" fill="currentColor"/>
<path d="M413.772 271.816L398.892 267.784L392.844 290.344C391.884 293.8 390.348 296.296 388.332 297.64C386.316 298.984 384.204 299.368 381.9 298.696C380.076 298.216 378.732 297.256 377.964 295.72C377.1 294.184 377.1 291.88 377.964 288.808L384.684 263.944L369.42 259.912L361.548 289.576C360.012 295.336 360.108 300.136 362.028 303.88C363.948 307.72 367.308 310.216 372.108 311.464C375.564 312.424 378.732 312.424 381.612 311.368C384.396 310.408 386.796 308.968 388.908 307.048L386.988 314.248L401.388 318.184L413.772 271.816Z" fill="currentColor"/>
<path d="M453.255 306.472L464.487 309.448L481.095 288.04L484.743 314.92L495.879 317.896L526.983 276.52L511.143 272.296L496.167 293.608L493.191 267.496L480.807 264.136L465.159 285.352L462.951 259.336L447.015 255.112L453.255 306.472Z" fill="currentColor"/>
<path d="M550.805 294.568L550.613 295.432C549.941 297.832 548.597 299.56 546.581 300.616C544.565 301.672 542.261 301.864 539.765 301.096C538.037 300.712 536.789 300.04 536.021 299.08C535.253 298.12 535.061 297.064 535.445 295.816C535.733 294.76 536.405 293.992 537.365 293.512C538.325 293.128 539.669 292.936 541.205 293.128L550.805 294.568ZM527.189 268.936L535.349 279.88C536.117 279.112 537.077 278.632 538.133 278.248C539.189 277.864 540.245 277.672 541.397 277.576C542.549 277.576 543.605 277.576 544.757 277.768C545.909 277.96 546.965 278.152 547.925 278.344C550.229 279.016 551.861 279.784 552.821 280.552C553.781 281.416 554.069 282.28 553.877 283.048L553.781 283.432C553.589 284.296 552.725 284.584 551.381 284.392L538.517 282.088C536.309 281.704 534.197 281.704 532.181 281.992C530.165 282.28 528.341 282.856 526.709 283.816C525.077 284.776 523.637 285.928 522.485 287.464C521.333 289 520.469 290.728 519.893 292.84C519.317 295.144 519.125 297.256 519.509 299.176C519.797 301.192 520.469 303.016 521.525 304.648C522.581 306.28 524.021 307.72 525.749 308.872C527.477 310.024 529.397 310.888 531.605 311.464C533.525 312.04 535.253 312.232 536.789 312.232C538.325 312.232 539.765 311.944 541.109 311.56C542.453 311.176 543.605 310.696 544.565 310.024C545.525 309.448 546.389 308.776 547.157 308.104L545.525 314.248L560.405 318.184L567.797 290.536C569.621 283.528 569.141 277.96 566.357 273.928C563.573 269.896 558.677 266.92 551.765 265C546.965 263.752 542.357 263.368 538.037 263.752C533.621 264.232 530.069 265.96 527.189 268.936Z" fill="currentColor"/>
<path d="M596.96 270.568L598.784 263.656L584.288 259.816L571.904 306.184L586.784 310.12L592.736 287.56C593.696 284.104 595.136 281.704 597.056 280.264C598.976 278.92 601.184 278.536 603.68 279.208C605.888 279.784 607.424 280.936 608.384 282.568C609.248 284.2 609.248 286.504 608.48 289.576L601.856 314.152L616.832 318.184L624.8 288.52C626.336 282.76 626.144 278.056 624.32 274.216C622.496 270.472 619.04 267.88 613.952 266.536C610.304 265.576 607.04 265.672 604.16 266.632C601.28 267.592 598.88 268.936 596.96 270.568Z" fill="currentColor"/>
<path d="M656.753 315.208L660.593 301C658.481 300.808 657.041 300.616 656.177 300.424C655.217 300.328 654.545 300.232 654.065 300.04C652.721 299.656 651.665 299.176 651.089 298.504C650.417 297.832 650.321 296.872 650.705 295.528L655.025 279.4L666.257 282.376L669.521 270.184L658.289 267.112L661.649 254.728L646.769 250.792L643.409 263.176L635.441 261.064L632.177 273.256L640.145 275.464L635.057 294.664C633.521 300.232 633.713 304.456 635.633 307.528C637.457 310.6 640.625 312.616 645.041 313.768C646.577 314.248 648.305 314.632 650.417 314.824C652.433 315.112 654.545 315.208 656.753 315.208Z" fill="currentColor"/>
<path d="M239.706 435.208L243.546 421C241.434 420.808 239.994 420.616 239.13 420.424C238.17 420.328 237.498 420.232 237.018 420.04C235.674 419.656 234.618 419.176 234.042 418.504C233.37 417.832 233.274 416.872 233.658 415.528L237.978 399.4L249.21 402.376L252.474 390.184L241.242 387.112L244.602 374.728L229.722 370.792L226.362 383.176L218.394 381.064L215.13 393.256L223.098 395.464L218.01 414.664C216.474 420.232 216.666 424.456 218.586 427.528C220.41 430.6 223.578 432.616 227.994 433.768C229.53 434.248 231.258 434.632 233.37 434.824C235.386 435.112 237.498 435.208 239.706 435.208Z" fill="currentColor"/>
<path d="M253.67 402.184C252.71 405.928 252.422 409.48 252.902 412.84C253.382 416.2 254.438 419.272 256.166 421.96C257.894 424.648 260.102 427.048 262.886 428.968C265.67 430.888 268.838 432.328 272.486 433.288C276.134 434.248 279.59 434.632 283.046 434.248C286.406 433.96 289.478 433.096 292.358 431.56C295.142 430.024 297.542 428.008 299.654 425.32C301.766 422.728 303.302 419.56 304.358 415.816C305.318 412.168 305.51 408.616 305.03 405.256C304.55 401.896 303.494 398.824 301.766 396.136C300.038 393.448 297.83 391.048 295.046 389.128C292.262 387.208 289.094 385.672 285.542 384.712C281.894 383.752 278.342 383.464 274.982 383.752C271.526 384.136 268.454 385 265.67 386.536C262.79 388.072 260.39 390.088 258.278 392.68C256.166 395.368 254.63 398.536 253.67 402.184ZM289.094 411.688C288.71 413.224 288.038 414.568 287.174 415.624C286.31 416.68 285.35 417.448 284.198 418.024C283.046 418.6 281.798 418.984 280.454 419.08C279.11 419.272 277.766 419.08 276.422 418.696C275.078 418.312 273.83 417.832 272.774 417.064C271.622 416.296 270.758 415.432 270.086 414.28C269.318 413.224 268.838 411.976 268.646 410.632C268.454 409.288 268.55 407.848 268.934 406.312C269.318 404.776 269.894 403.528 270.758 402.472C271.622 401.416 272.678 400.552 273.83 399.976C274.982 399.4 276.23 399.112 277.574 398.92C278.918 398.824 280.262 398.92 281.606 399.304C282.95 399.688 284.102 400.264 285.254 401.032C286.31 401.8 287.174 402.664 287.942 403.72C288.614 404.872 289.094 406.024 289.286 407.368C289.478 408.712 289.478 410.152 289.094 411.688Z" fill="currentColor"/>
<path d="M363.396 399.016C364.74 399.4 365.892 399.976 367.044 400.744C368.1 401.512 368.964 402.472 369.732 403.528C370.404 404.68 370.884 405.832 371.076 407.176C371.268 408.52 371.268 409.96 370.884 411.496C370.5 413.032 369.828 414.376 368.964 415.432C368.1 416.488 367.14 417.256 365.988 417.832C364.836 418.408 363.588 418.792 362.244 418.888C360.9 419.08 359.556 418.888 358.212 418.504C356.868 418.12 355.62 417.544 354.468 416.776C353.316 416.008 352.452 415.144 351.78 413.992C351.012 412.936 350.532 411.688 350.34 410.344C350.148 409 350.244 407.56 350.628 406.024C351.012 404.488 351.588 403.24 352.548 402.184C353.412 401.128 354.468 400.264 355.62 399.688C356.772 399.112 358.02 398.824 359.364 398.632C360.708 398.536 362.052 398.632 363.396 399.016ZM396.708 373.672L381.924 369.736L375.108 394.792C374.244 392.296 372.708 389.992 370.596 387.784C368.484 385.576 365.604 383.944 362.052 382.984C359.364 382.312 356.772 382.12 354.084 382.504C351.396 382.888 348.804 383.848 346.404 385.384C344.004 386.92 341.892 389.128 339.972 391.816C338.052 394.6 336.516 397.96 335.46 401.992C334.308 406.024 333.924 409.768 334.212 413.128C334.5 416.488 335.364 419.464 336.708 421.96C338.052 424.456 339.78 426.568 341.892 428.296C344.004 430.024 346.5 431.176 349.188 431.848C352.452 432.808 355.524 432.904 358.404 432.232C361.284 431.56 363.876 430.216 366.18 428.296L364.452 434.632L379.332 438.568L396.708 373.672Z" fill="currentColor"/>
<path d="M396.827 402.184C395.867 405.928 395.579 409.48 396.059 412.84C396.539 416.2 397.595 419.272 399.323 421.96C401.051 424.648 403.259 427.048 406.043 428.968C408.827 430.888 411.994 432.328 415.642 433.288C419.29 434.248 422.747 434.632 426.203 434.248C429.563 433.96 432.634 433.096 435.514 431.56C438.298 430.024 440.698 428.008 442.81 425.32C444.922 422.728 446.458 419.56 447.514 415.816C448.474 412.168 448.666 408.616 448.186 405.256C447.706 401.896 446.651 398.824 444.923 396.136C443.195 393.448 440.987 391.048 438.203 389.128C435.419 387.208 432.251 385.672 428.699 384.712C425.051 383.752 421.498 383.464 418.138 383.752C414.682 384.136 411.611 385 408.827 386.536C405.947 388.072 403.547 390.088 401.435 392.68C399.323 395.368 397.787 398.536 396.827 402.184ZM432.25 411.688C431.866 413.224 431.195 414.568 430.331 415.624C429.467 416.68 428.506 417.448 427.354 418.024C426.202 418.6 424.955 418.984 423.611 419.08C422.267 419.272 420.922 419.08 419.578 418.696C418.234 418.312 416.987 417.832 415.931 417.064C414.779 416.296 413.914 415.432 413.242 414.28C412.474 413.224 411.994 411.976 411.802 410.632C411.61 409.288 411.707 407.848 412.091 406.312C412.475 404.776 413.05 403.528 413.914 402.472C414.778 401.416 415.835 400.552 416.987 399.976C418.139 399.4 419.386 399.112 420.73 398.92C422.074 398.824 423.419 398.92 424.763 399.304C426.107 399.688 427.258 400.264 428.41 401.032C429.466 401.8 430.331 402.664 431.099 403.72C431.771 404.872 432.251 406.024 432.443 407.368C432.635 408.712 432.634 410.152 432.25 411.688Z" fill="currentColor"/>
</svg>
