<svg width="861" height="491" viewBox="0 0 861 491" fill="none" xmlns="http://www.w3.org/2000/svg">
<circle cx="245.5" cy="245.5" r="240" stroke="currentColor" stroke-width="11"/>
<circle cx="615.5" cy="245.5" r="240" stroke="currentColor" stroke-width="11" stroke-dasharray="10 10"/>
<path d="M176.939 233.98V259H172.835V233.98H176.939Z" fill="currentColor"/>
<path d="M180.959 248.992C180.959 247 181.367 245.236 182.183 243.7C183.023 242.164 184.151 240.976 185.567 240.136C187.007 239.272 188.603 238.84 190.355 238.84C191.651 238.84 192.923 239.128 194.171 239.704C195.443 240.256 196.451 241 197.195 241.936V232.36H201.335V259H197.195V256.012C196.523 256.972 195.587 257.764 194.387 258.388C193.211 259.012 191.855 259.324 190.319 259.324C188.591 259.324 187.007 258.892 185.567 258.028C184.151 257.14 183.023 255.916 182.183 254.356C181.367 252.772 180.959 250.984 180.959 248.992ZM197.195 249.064C197.195 247.696 196.907 246.508 196.331 245.5C195.779 244.492 195.047 243.724 194.135 243.196C193.223 242.668 192.239 242.404 191.183 242.404C190.127 242.404 189.143 242.668 188.231 243.196C187.319 243.7 186.575 244.456 185.999 245.464C185.447 246.448 185.171 247.624 185.171 248.992C185.171 250.36 185.447 251.56 185.999 252.592C186.575 253.624 187.319 254.416 188.231 254.968C189.167 255.496 190.151 255.76 191.183 255.76C192.239 255.76 193.223 255.496 194.135 254.968C195.047 254.44 195.779 253.672 196.331 252.664C196.907 251.632 197.195 250.432 197.195 249.064Z" fill="currentColor"/>
<path d="M224.905 248.596C224.905 249.34 224.857 250.012 224.761 250.612H209.605C209.725 252.196 210.313 253.468 211.369 254.428C212.425 255.388 213.721 255.868 215.257 255.868C217.465 255.868 219.025 254.944 219.937 253.096H224.365C223.765 254.92 222.673 256.42 221.089 257.596C219.529 258.748 217.585 259.324 215.257 259.324C213.361 259.324 211.657 258.904 210.145 258.064C208.657 257.2 207.481 256 206.617 254.464C205.777 252.904 205.357 251.104 205.357 249.064C205.357 247.024 205.765 245.236 206.581 243.7C207.421 242.14 208.585 240.94 210.073 240.1C211.585 239.26 213.313 238.84 215.257 238.84C217.129 238.84 218.797 239.248 220.261 240.064C221.725 240.88 222.865 242.032 223.681 243.52C224.497 244.984 224.905 246.676 224.905 248.596ZM220.621 247.3C220.597 245.788 220.057 244.576 219.001 243.664C217.945 242.752 216.637 242.296 215.077 242.296C213.661 242.296 212.449 242.752 211.441 243.664C210.433 244.552 209.833 245.764 209.641 247.3H220.621Z" fill="currentColor"/>
<path d="M227.576 248.992C227.576 247 227.984 245.236 228.8 243.7C229.64 242.164 230.768 240.976 232.184 240.136C233.624 239.272 235.208 238.84 236.936 238.84C238.496 238.84 239.852 239.152 241.004 239.776C242.18 240.376 243.116 241.132 243.812 242.044V239.164H247.952V259H243.812V256.048C243.116 256.984 242.168 257.764 240.968 258.388C239.768 259.012 238.4 259.324 236.864 259.324C235.16 259.324 233.6 258.892 232.184 258.028C230.768 257.14 229.64 255.916 228.8 254.356C227.984 252.772 227.576 250.984 227.576 248.992ZM243.812 249.064C243.812 247.696 243.524 246.508 242.948 245.5C242.396 244.492 241.664 243.724 240.752 243.196C239.84 242.668 238.856 242.404 237.8 242.404C236.744 242.404 235.76 242.668 234.848 243.196C233.936 243.7 233.192 244.456 232.616 245.464C232.064 246.448 231.788 247.624 231.788 248.992C231.788 250.36 232.064 251.56 232.616 252.592C233.192 253.624 233.936 254.416 234.848 254.968C235.784 255.496 236.768 255.76 237.8 255.76C238.856 255.76 239.84 255.496 240.752 254.968C241.664 254.44 242.396 253.672 242.948 252.664C243.524 251.632 243.812 250.432 243.812 249.064Z" fill="currentColor"/>
<path d="M258.131 242.512V253.492C258.131 254.236 258.299 254.776 258.635 255.112C258.995 255.424 259.595 255.58 260.435 255.58H262.955V259H259.715C257.867 259 256.451 258.568 255.467 257.704C254.483 256.84 253.991 255.436 253.991 253.492V242.512H251.651V239.164H253.991V234.232H258.131V239.164H262.955V242.512H258.131Z" fill="currentColor"/>
<path d="M268.825 236.536C268.081 236.536 267.457 236.284 266.953 235.78C266.449 235.276 266.197 234.652 266.197 233.908C266.197 233.164 266.449 232.54 266.953 232.036C267.457 231.532 268.081 231.28 268.825 231.28C269.545 231.28 270.157 231.532 270.661 232.036C271.165 232.54 271.417 233.164 271.417 233.908C271.417 234.652 271.165 235.276 270.661 235.78C270.157 236.284 269.545 236.536 268.825 236.536ZM270.841 239.164V259H266.737V239.164H270.841Z" fill="currentColor"/>
<path d="M284.833 259.324C282.961 259.324 281.269 258.904 279.757 258.064C278.245 257.2 277.057 256 276.193 254.464C275.329 252.904 274.897 251.104 274.897 249.064C274.897 247.048 275.341 245.26 276.229 243.7C277.117 242.14 278.329 240.94 279.865 240.1C281.401 239.26 283.117 238.84 285.013 238.84C286.909 238.84 288.625 239.26 290.161 240.1C291.697 240.94 292.909 242.14 293.797 243.7C294.685 245.26 295.129 247.048 295.129 249.064C295.129 251.08 294.673 252.868 293.761 254.428C292.849 255.988 291.601 257.2 290.017 258.064C288.457 258.904 286.729 259.324 284.833 259.324ZM284.833 255.76C285.889 255.76 286.873 255.508 287.785 255.004C288.721 254.5 289.477 253.744 290.053 252.736C290.629 251.728 290.917 250.504 290.917 249.064C290.917 247.624 290.641 246.412 290.089 245.428C289.537 244.42 288.805 243.664 287.893 243.16C286.981 242.656 285.997 242.404 284.941 242.404C283.885 242.404 282.901 242.656 281.989 243.16C281.101 243.664 280.393 244.42 279.865 245.428C279.337 246.412 279.073 247.624 279.073 249.064C279.073 251.2 279.613 252.856 280.693 254.032C281.797 255.184 283.177 255.76 284.833 255.76Z" fill="currentColor"/>
<path d="M309.194 238.84C310.754 238.84 312.146 239.164 313.37 239.812C314.618 240.46 315.59 241.42 316.286 242.692C316.982 243.964 317.33 245.5 317.33 247.3V259H313.262V247.912C313.262 246.136 312.818 244.78 311.93 243.844C311.042 242.884 309.83 242.404 308.294 242.404C306.758 242.404 305.534 242.884 304.622 243.844C303.734 244.78 303.29 246.136 303.29 247.912V259H299.186V239.164H303.29V241.432C303.962 240.616 304.814 239.98 305.846 239.524C306.902 239.068 308.018 238.84 309.194 238.84Z" fill="currentColor"/>
<path d="M536.179 236.292V243.636H544.819V246.984H536.179V254.652H545.899V258H532.075V232.944H545.899V236.292H536.179Z" fill="currentColor"/>
<path d="M559.45 247.956L565.858 258H561.214L556.93 251.268L552.898 258H548.614L555.022 248.244L548.614 238.164H553.258L557.542 244.896L561.574 238.164H565.858L559.45 247.956Z" fill="currentColor"/>
<path d="M587.099 247.596C587.099 248.34 587.051 249.012 586.955 249.612H571.799C571.919 251.196 572.507 252.468 573.563 253.428C574.619 254.388 575.915 254.868 577.451 254.868C579.659 254.868 581.219 253.944 582.131 252.096H586.559C585.959 253.92 584.867 255.42 583.283 256.596C581.723 257.748 579.779 258.324 577.451 258.324C575.555 258.324 573.851 257.904 572.339 257.064C570.851 256.2 569.675 255 568.811 253.464C567.971 251.904 567.551 250.104 567.551 248.064C567.551 246.024 567.959 244.236 568.775 242.7C569.615 241.14 570.779 239.94 572.267 239.1C573.779 238.26 575.507 237.84 577.451 237.84C579.323 237.84 580.991 238.248 582.455 239.064C583.919 239.88 585.059 241.032 585.875 242.52C586.691 243.984 587.099 245.676 587.099 247.596ZM582.815 246.3C582.791 244.788 582.251 243.576 581.195 242.664C580.139 241.752 578.831 241.296 577.271 241.296C575.855 241.296 574.643 241.752 573.635 242.664C572.627 243.552 572.027 244.764 571.835 246.3H582.815Z" fill="currentColor"/>
<path d="M589.77 248.064C589.77 246.024 590.178 244.236 590.994 242.7C591.834 241.14 592.986 239.94 594.45 239.1C595.914 238.26 597.594 237.84 599.49 237.84C601.89 237.84 603.87 238.416 605.43 239.568C607.014 240.696 608.082 242.316 608.634 244.428H604.206C603.846 243.444 603.27 242.676 602.478 242.124C601.686 241.572 600.69 241.296 599.49 241.296C597.81 241.296 596.466 241.896 595.458 243.096C594.474 244.272 593.982 245.928 593.982 248.064C593.982 250.2 594.474 251.868 595.458 253.068C596.466 254.268 597.81 254.868 599.49 254.868C601.866 254.868 603.438 253.824 604.206 251.736H608.634C608.058 253.752 606.978 255.36 605.394 256.56C603.81 257.736 601.842 258.324 599.49 258.324C597.594 258.324 595.914 257.904 594.45 257.064C592.986 256.2 591.834 255 590.994 253.464C590.178 251.904 589.77 250.104 589.77 248.064Z" fill="currentColor"/>
<path d="M630.687 238.164V258H626.583V255.66C625.935 256.476 625.083 257.124 624.027 257.604C622.995 258.06 621.891 258.288 620.715 258.288C619.155 258.288 617.751 257.964 616.503 257.316C615.279 256.668 614.307 255.708 613.587 254.436C612.891 253.164 612.543 251.628 612.543 249.828V238.164H616.611V249.216C616.611 250.992 617.055 252.36 617.943 253.32C618.831 254.256 620.043 254.724 621.579 254.724C623.115 254.724 624.327 254.256 625.215 253.32C626.127 252.36 626.583 250.992 626.583 249.216V238.164H630.687Z" fill="currentColor"/>
<path d="M640.89 241.512V252.492C640.89 253.236 641.058 253.776 641.394 254.112C641.754 254.424 642.354 254.58 643.194 254.58H645.714V258H642.474C640.626 258 639.21 257.568 638.226 256.704C637.242 255.84 636.75 254.436 636.75 252.492V241.512H634.41V238.164H636.75V233.232H640.89V238.164H645.714V241.512H640.89Z" fill="currentColor"/>
<path d="M651.585 235.536C650.841 235.536 650.217 235.284 649.713 234.78C649.209 234.276 648.957 233.652 648.957 232.908C648.957 232.164 649.209 231.54 649.713 231.036C650.217 230.532 650.841 230.28 651.585 230.28C652.305 230.28 652.917 230.532 653.421 231.036C653.925 231.54 654.177 232.164 654.177 232.908C654.177 233.652 653.925 234.276 653.421 234.78C652.917 235.284 652.305 235.536 651.585 235.536ZM653.601 238.164V258H649.497V238.164H653.601Z" fill="currentColor"/>
<path d="M667.593 258.324C665.721 258.324 664.029 257.904 662.517 257.064C661.005 256.2 659.817 255 658.953 253.464C658.089 251.904 657.657 250.104 657.657 248.064C657.657 246.048 658.101 244.26 658.989 242.7C659.877 241.14 661.089 239.94 662.625 239.1C664.161 238.26 665.877 237.84 667.773 237.84C669.669 237.84 671.385 238.26 672.921 239.1C674.457 239.94 675.669 241.14 676.557 242.7C677.445 244.26 677.889 246.048 677.889 248.064C677.889 250.08 677.433 251.868 676.521 253.428C675.609 254.988 674.361 256.2 672.777 257.064C671.217 257.904 669.489 258.324 667.593 258.324ZM667.593 254.76C668.649 254.76 669.633 254.508 670.545 254.004C671.481 253.5 672.237 252.744 672.813 251.736C673.389 250.728 673.677 249.504 673.677 248.064C673.677 246.624 673.401 245.412 672.849 244.428C672.297 243.42 671.565 242.664 670.653 242.16C669.741 241.656 668.757 241.404 667.701 241.404C666.645 241.404 665.661 241.656 664.749 242.16C663.861 242.664 663.153 243.42 662.625 244.428C662.097 245.412 661.833 246.624 661.833 248.064C661.833 250.2 662.373 251.856 663.453 253.032C664.557 254.184 665.937 254.76 667.593 254.76Z" fill="currentColor"/>
<path d="M691.954 237.84C693.514 237.84 694.906 238.164 696.13 238.812C697.378 239.46 698.35 240.42 699.046 241.692C699.742 242.964 700.09 244.5 700.09 246.3V258H696.022V246.912C696.022 245.136 695.578 243.78 694.69 242.844C693.802 241.884 692.59 241.404 691.054 241.404C689.518 241.404 688.294 241.884 687.382 242.844C686.494 243.78 686.05 245.136 686.05 246.912V258H681.946V238.164H686.05V240.432C686.722 239.616 687.574 238.98 688.606 238.524C689.662 238.068 690.778 237.84 691.954 237.84Z" fill="currentColor"/>
</svg>
